<mxfile host="Electron" modified="2023-10-26T07:04:23.080Z" agent="Mozilla/5.0 (X11; Linux x86_64) AppleWebKit/537.36 (KHTML, like Gecko) draw.io/22.0.3 Chrome/114.0.5735.289 Electron/25.8.4 Safari/537.36" etag="Y8ESfk7Jzeld0E1mMnh6" version="22.0.3" type="device">
  <diagram name="Page-1" id="LHGNS5s7BsONuAaekyvb">
    <mxGraphModel dx="466" dy="862" grid="1" gridSize="10" guides="1" tooltips="1" connect="1" arrows="1" fold="1" page="1" pageScale="1" pageWidth="1100" pageHeight="850" math="0" shadow="0">
      <root>
        <mxCell id="0" />
        <mxCell id="1" parent="0" />
        <mxCell id="EORFASU507ymha3DuIpC-4" style="rounded=0;orthogonalLoop=1;jettySize=auto;html=1;exitX=1;exitY=0.5;exitDx=0;exitDy=0;" edge="1" parent="1" source="EORFASU507ymha3DuIpC-1" target="EORFASU507ymha3DuIpC-2">
          <mxGeometry relative="1" as="geometry" />
        </mxCell>
        <mxCell id="EORFASU507ymha3DuIpC-6" style="rounded=0;orthogonalLoop=1;jettySize=auto;html=1;exitX=1;exitY=0.25;exitDx=0;exitDy=0;startArrow=none;startFill=0;" edge="1" parent="1" source="EORFASU507ymha3DuIpC-1" target="EORFASU507ymha3DuIpC-5">
          <mxGeometry relative="1" as="geometry" />
        </mxCell>
        <mxCell id="EORFASU507ymha3DuIpC-1" value="index.html" style="rounded=0;whiteSpace=wrap;html=1;" vertex="1" parent="1">
          <mxGeometry y="40" width="80" height="20" as="geometry" />
        </mxCell>
        <mxCell id="EORFASU507ymha3DuIpC-15" style="edgeStyle=none;shape=connector;rounded=0;orthogonalLoop=1;jettySize=auto;html=1;exitX=1;exitY=0.5;exitDx=0;exitDy=0;labelBackgroundColor=default;strokeColor=default;align=center;verticalAlign=middle;fontFamily=Helvetica;fontSize=11;fontColor=default;startArrow=none;startFill=0;endArrow=classic;" edge="1" parent="1" source="EORFASU507ymha3DuIpC-2" target="EORFASU507ymha3DuIpC-8">
          <mxGeometry relative="1" as="geometry" />
        </mxCell>
        <mxCell id="EORFASU507ymha3DuIpC-17" style="edgeStyle=none;shape=connector;rounded=0;orthogonalLoop=1;jettySize=auto;html=1;exitX=1;exitY=0.5;exitDx=0;exitDy=0;labelBackgroundColor=default;strokeColor=default;align=center;verticalAlign=middle;fontFamily=Helvetica;fontSize=11;fontColor=default;startArrow=none;startFill=0;endArrow=classic;" edge="1" parent="1" source="EORFASU507ymha3DuIpC-2" target="EORFASU507ymha3DuIpC-9">
          <mxGeometry relative="1" as="geometry" />
        </mxCell>
        <mxCell id="EORFASU507ymha3DuIpC-18" style="edgeStyle=none;shape=connector;rounded=0;orthogonalLoop=1;jettySize=auto;html=1;exitX=1;exitY=0.5;exitDx=0;exitDy=0;labelBackgroundColor=default;strokeColor=default;align=center;verticalAlign=middle;fontFamily=Helvetica;fontSize=11;fontColor=default;startArrow=none;startFill=0;endArrow=classic;" edge="1" parent="1" source="EORFASU507ymha3DuIpC-2" target="EORFASU507ymha3DuIpC-10">
          <mxGeometry relative="1" as="geometry" />
        </mxCell>
        <mxCell id="EORFASU507ymha3DuIpC-19" style="edgeStyle=none;shape=connector;rounded=0;orthogonalLoop=1;jettySize=auto;html=1;exitX=1;exitY=0.5;exitDx=0;exitDy=0;labelBackgroundColor=default;strokeColor=default;align=center;verticalAlign=middle;fontFamily=Helvetica;fontSize=11;fontColor=default;startArrow=none;startFill=0;endArrow=classic;" edge="1" parent="1" source="EORFASU507ymha3DuIpC-2" target="EORFASU507ymha3DuIpC-12">
          <mxGeometry relative="1" as="geometry" />
        </mxCell>
        <mxCell id="EORFASU507ymha3DuIpC-20" style="edgeStyle=none;shape=connector;rounded=0;orthogonalLoop=1;jettySize=auto;html=1;exitX=1;exitY=0.5;exitDx=0;exitDy=0;labelBackgroundColor=default;strokeColor=default;align=center;verticalAlign=middle;fontFamily=Helvetica;fontSize=11;fontColor=default;startArrow=none;startFill=0;endArrow=classic;" edge="1" parent="1" source="EORFASU507ymha3DuIpC-2" target="EORFASU507ymha3DuIpC-13">
          <mxGeometry relative="1" as="geometry" />
        </mxCell>
        <mxCell id="EORFASU507ymha3DuIpC-22" style="edgeStyle=none;shape=connector;rounded=0;orthogonalLoop=1;jettySize=auto;html=1;exitX=1;exitY=0.5;exitDx=0;exitDy=0;labelBackgroundColor=default;strokeColor=default;align=center;verticalAlign=middle;fontFamily=Helvetica;fontSize=11;fontColor=default;startArrow=none;startFill=0;endArrow=classic;" edge="1" parent="1" source="EORFASU507ymha3DuIpC-8" target="EORFASU507ymha3DuIpC-14">
          <mxGeometry relative="1" as="geometry" />
        </mxCell>
        <mxCell id="EORFASU507ymha3DuIpC-23" style="edgeStyle=none;shape=connector;rounded=0;orthogonalLoop=1;jettySize=auto;html=1;exitX=1;exitY=0.5;exitDx=0;exitDy=0;labelBackgroundColor=default;strokeColor=default;align=center;verticalAlign=middle;fontFamily=Helvetica;fontSize=11;fontColor=default;startArrow=none;startFill=0;endArrow=classic;" edge="1" parent="1" source="EORFASU507ymha3DuIpC-2" target="EORFASU507ymha3DuIpC-16">
          <mxGeometry relative="1" as="geometry" />
        </mxCell>
        <mxCell id="EORFASU507ymha3DuIpC-31" style="edgeStyle=none;shape=connector;rounded=0;orthogonalLoop=1;jettySize=auto;html=1;exitX=1;exitY=0.5;exitDx=0;exitDy=0;labelBackgroundColor=default;strokeColor=default;align=center;verticalAlign=middle;fontFamily=Helvetica;fontSize=11;fontColor=default;startArrow=none;startFill=0;endArrow=classic;" edge="1" parent="1" source="EORFASU507ymha3DuIpC-2" target="EORFASU507ymha3DuIpC-14">
          <mxGeometry relative="1" as="geometry" />
        </mxCell>
        <mxCell id="EORFASU507ymha3DuIpC-34" style="edgeStyle=none;shape=connector;rounded=0;orthogonalLoop=1;jettySize=auto;html=1;exitX=1;exitY=0.5;exitDx=0;exitDy=0;labelBackgroundColor=default;strokeColor=default;align=center;verticalAlign=middle;fontFamily=Helvetica;fontSize=11;fontColor=default;startArrow=none;startFill=0;endArrow=classic;" edge="1" parent="1" source="EORFASU507ymha3DuIpC-2" target="EORFASU507ymha3DuIpC-25">
          <mxGeometry relative="1" as="geometry" />
        </mxCell>
        <mxCell id="EORFASU507ymha3DuIpC-35" style="edgeStyle=none;shape=connector;rounded=0;orthogonalLoop=1;jettySize=auto;html=1;exitX=1;exitY=0.5;exitDx=0;exitDy=0;labelBackgroundColor=default;strokeColor=default;align=center;verticalAlign=middle;fontFamily=Helvetica;fontSize=11;fontColor=default;startArrow=none;startFill=0;endArrow=classic;" edge="1" parent="1" source="EORFASU507ymha3DuIpC-2" target="EORFASU507ymha3DuIpC-32">
          <mxGeometry relative="1" as="geometry" />
        </mxCell>
        <mxCell id="EORFASU507ymha3DuIpC-36" style="edgeStyle=none;shape=connector;rounded=0;orthogonalLoop=1;jettySize=auto;html=1;exitX=1;exitY=0.5;exitDx=0;exitDy=0;labelBackgroundColor=default;strokeColor=default;align=center;verticalAlign=middle;fontFamily=Helvetica;fontSize=11;fontColor=default;startArrow=none;startFill=0;endArrow=classic;" edge="1" parent="1" source="EORFASU507ymha3DuIpC-2" target="EORFASU507ymha3DuIpC-33">
          <mxGeometry relative="1" as="geometry" />
        </mxCell>
        <mxCell id="EORFASU507ymha3DuIpC-2" value="feed.html" style="rounded=0;whiteSpace=wrap;html=1;" vertex="1" parent="1">
          <mxGeometry x="120" y="80" width="80" height="20" as="geometry" />
        </mxCell>
        <mxCell id="EORFASU507ymha3DuIpC-7" style="edgeStyle=none;shape=connector;rounded=0;orthogonalLoop=1;jettySize=auto;html=1;exitX=0.5;exitY=1;exitDx=0;exitDy=0;labelBackgroundColor=default;strokeColor=default;align=center;verticalAlign=middle;fontFamily=Helvetica;fontSize=11;fontColor=default;endArrow=classic;" edge="1" parent="1" source="EORFASU507ymha3DuIpC-5" target="EORFASU507ymha3DuIpC-2">
          <mxGeometry relative="1" as="geometry" />
        </mxCell>
        <mxCell id="EORFASU507ymha3DuIpC-5" value="newUser.html" style="rounded=0;whiteSpace=wrap;html=1;" vertex="1" parent="1">
          <mxGeometry x="120" y="40" width="80" height="20" as="geometry" />
        </mxCell>
        <mxCell id="EORFASU507ymha3DuIpC-26" style="edgeStyle=none;shape=connector;rounded=0;orthogonalLoop=1;jettySize=auto;html=1;exitX=1;exitY=0;exitDx=0;exitDy=0;labelBackgroundColor=default;strokeColor=default;align=center;verticalAlign=middle;fontFamily=Helvetica;fontSize=11;fontColor=default;startArrow=classic;startFill=1;endArrow=classic;" edge="1" parent="1" source="EORFASU507ymha3DuIpC-8" target="EORFASU507ymha3DuIpC-14">
          <mxGeometry relative="1" as="geometry" />
        </mxCell>
        <mxCell id="EORFASU507ymha3DuIpC-28" style="edgeStyle=none;shape=connector;rounded=0;orthogonalLoop=1;jettySize=auto;html=1;exitX=1;exitY=0.5;exitDx=0;exitDy=0;labelBackgroundColor=default;strokeColor=default;align=center;verticalAlign=middle;fontFamily=Helvetica;fontSize=11;fontColor=default;startArrow=classic;startFill=1;endArrow=classic;" edge="1" parent="1" source="EORFASU507ymha3DuIpC-8" target="EORFASU507ymha3DuIpC-27">
          <mxGeometry relative="1" as="geometry" />
        </mxCell>
        <mxCell id="EORFASU507ymha3DuIpC-24" style="edgeStyle=none;shape=connector;rounded=0;orthogonalLoop=1;jettySize=auto;html=1;exitX=1;exitY=0.5;exitDx=0;exitDy=0;labelBackgroundColor=default;strokeColor=default;align=center;verticalAlign=middle;fontFamily=Helvetica;fontSize=11;fontColor=default;startArrow=none;startFill=0;endArrow=classic;" edge="1" parent="1" source="EORFASU507ymha3DuIpC-9" target="EORFASU507ymha3DuIpC-14">
          <mxGeometry relative="1" as="geometry" />
        </mxCell>
        <mxCell id="EORFASU507ymha3DuIpC-9" value="newPost.html" style="rounded=0;whiteSpace=wrap;html=1;fontFamily=Helvetica;fontSize=11;fontColor=default;" vertex="1" parent="1">
          <mxGeometry x="240" y="200" width="80" height="20" as="geometry" />
        </mxCell>
        <mxCell id="EORFASU507ymha3DuIpC-10" value="ads.html" style="rounded=0;whiteSpace=wrap;html=1;fontFamily=Helvetica;fontSize=11;fontColor=default;" vertex="1" parent="1">
          <mxGeometry x="240" y="240" width="80" height="20" as="geometry" />
        </mxCell>
        <mxCell id="EORFASU507ymha3DuIpC-39" style="edgeStyle=none;shape=connector;rounded=0;orthogonalLoop=1;jettySize=auto;html=1;exitX=1;exitY=0.5;exitDx=0;exitDy=0;labelBackgroundColor=default;strokeColor=default;align=center;verticalAlign=middle;fontFamily=Helvetica;fontSize=11;fontColor=default;startArrow=none;startFill=0;endArrow=classic;" edge="1" parent="1" source="EORFASU507ymha3DuIpC-12" target="EORFASU507ymha3DuIpC-27">
          <mxGeometry relative="1" as="geometry" />
        </mxCell>
        <mxCell id="EORFASU507ymha3DuIpC-12" value="messaging.html" style="rounded=0;whiteSpace=wrap;html=1;fontFamily=Helvetica;fontSize=11;fontColor=default;" vertex="1" parent="1">
          <mxGeometry x="240" y="280" width="80" height="20" as="geometry" />
        </mxCell>
        <mxCell id="EORFASU507ymha3DuIpC-13" value="settings.html" style="rounded=0;whiteSpace=wrap;html=1;fontFamily=Helvetica;fontSize=11;fontColor=default;" vertex="1" parent="1">
          <mxGeometry x="240" y="320" width="80" height="20" as="geometry" />
        </mxCell>
        <mxCell id="EORFASU507ymha3DuIpC-40" style="edgeStyle=none;shape=connector;rounded=0;orthogonalLoop=1;jettySize=auto;html=1;exitX=1;exitY=0.5;exitDx=0;exitDy=0;labelBackgroundColor=default;strokeColor=default;align=center;verticalAlign=middle;fontFamily=Helvetica;fontSize=11;fontColor=default;startArrow=classic;startFill=1;endArrow=classic;" edge="1" parent="1" source="EORFASU507ymha3DuIpC-14" target="EORFASU507ymha3DuIpC-27">
          <mxGeometry relative="1" as="geometry" />
        </mxCell>
        <mxCell id="EORFASU507ymha3DuIpC-47" style="edgeStyle=none;shape=connector;rounded=0;orthogonalLoop=1;jettySize=auto;html=1;exitX=0.5;exitY=1;exitDx=0;exitDy=0;labelBackgroundColor=default;strokeColor=default;align=center;verticalAlign=middle;fontFamily=Helvetica;fontSize=11;fontColor=default;startArrow=classic;startFill=1;endArrow=classic;" edge="1" parent="1" source="EORFASU507ymha3DuIpC-14" target="EORFASU507ymha3DuIpC-37">
          <mxGeometry relative="1" as="geometry" />
        </mxCell>
        <mxCell id="EORFASU507ymha3DuIpC-14" value="post.html" style="rounded=0;whiteSpace=wrap;html=1;fontFamily=Helvetica;fontSize=11;fontColor=default;" vertex="1" parent="1">
          <mxGeometry x="560" y="80" width="80" height="20" as="geometry" />
        </mxCell>
        <mxCell id="EORFASU507ymha3DuIpC-42" style="edgeStyle=none;shape=connector;rounded=0;orthogonalLoop=1;jettySize=auto;html=1;exitX=1;exitY=0.5;exitDx=0;exitDy=0;labelBackgroundColor=default;strokeColor=default;align=center;verticalAlign=middle;fontFamily=Helvetica;fontSize=11;fontColor=default;startArrow=none;startFill=0;endArrow=classic;" edge="1" parent="1" source="EORFASU507ymha3DuIpC-16" target="EORFASU507ymha3DuIpC-8">
          <mxGeometry relative="1" as="geometry" />
        </mxCell>
        <mxCell id="EORFASU507ymha3DuIpC-16" value="search.html" style="rounded=0;whiteSpace=wrap;html=1;fontFamily=Helvetica;fontSize=11;fontColor=default;" vertex="1" parent="1">
          <mxGeometry x="240" y="360" width="80" height="20" as="geometry" />
        </mxCell>
        <mxCell id="EORFASU507ymha3DuIpC-25" value="locations.html" style="rounded=0;whiteSpace=wrap;html=1;fontFamily=Helvetica;fontSize=11;fontColor=default;" vertex="1" parent="1">
          <mxGeometry x="240" y="400" width="80" height="20" as="geometry" />
        </mxCell>
        <mxCell id="EORFASU507ymha3DuIpC-27" value="messageGroup.html" style="rounded=0;whiteSpace=wrap;html=1;fontFamily=Helvetica;fontSize=11;fontColor=default;" vertex="1" parent="1">
          <mxGeometry x="680" y="80" width="120" height="20" as="geometry" />
        </mxCell>
        <mxCell id="EORFASU507ymha3DuIpC-29" value="" style="edgeStyle=none;shape=connector;rounded=0;orthogonalLoop=1;jettySize=auto;html=1;exitX=1;exitY=0.5;exitDx=0;exitDy=0;labelBackgroundColor=default;strokeColor=default;align=center;verticalAlign=middle;fontFamily=Helvetica;fontSize=11;fontColor=default;startArrow=none;startFill=0;endArrow=classic;" edge="1" parent="1" source="EORFASU507ymha3DuIpC-2" target="EORFASU507ymha3DuIpC-8">
          <mxGeometry relative="1" as="geometry">
            <mxPoint x="190" y="90" as="sourcePoint" />
            <mxPoint x="360" y="90" as="targetPoint" />
          </mxGeometry>
        </mxCell>
        <mxCell id="EORFASU507ymha3DuIpC-38" style="edgeStyle=none;shape=connector;rounded=0;orthogonalLoop=1;jettySize=auto;html=1;exitX=1;exitY=0.5;exitDx=0;exitDy=0;labelBackgroundColor=default;strokeColor=default;align=center;verticalAlign=middle;fontFamily=Helvetica;fontSize=11;fontColor=default;startArrow=none;startFill=0;endArrow=classic;" edge="1" parent="1" source="EORFASU507ymha3DuIpC-8" target="EORFASU507ymha3DuIpC-37">
          <mxGeometry relative="1" as="geometry" />
        </mxCell>
        <mxCell id="EORFASU507ymha3DuIpC-8" value="user.html" style="rounded=0;whiteSpace=wrap;html=1;fontFamily=Helvetica;fontSize=11;fontColor=default;" vertex="1" parent="1">
          <mxGeometry x="400" y="120" width="80" height="20" as="geometry" />
        </mxCell>
        <mxCell id="EORFASU507ymha3DuIpC-43" style="edgeStyle=none;shape=connector;rounded=0;orthogonalLoop=1;jettySize=auto;html=1;exitX=1;exitY=0.5;exitDx=0;exitDy=0;labelBackgroundColor=default;strokeColor=default;align=center;verticalAlign=middle;fontFamily=Helvetica;fontSize=11;fontColor=default;startArrow=none;startFill=0;endArrow=classic;" edge="1" parent="1" source="EORFASU507ymha3DuIpC-32" target="EORFASU507ymha3DuIpC-37">
          <mxGeometry relative="1" as="geometry" />
        </mxCell>
        <mxCell id="EORFASU507ymha3DuIpC-45" style="edgeStyle=none;shape=connector;rounded=0;orthogonalLoop=1;jettySize=auto;html=1;exitX=1;exitY=0.5;exitDx=0;exitDy=0;labelBackgroundColor=default;strokeColor=default;align=center;verticalAlign=middle;fontFamily=Helvetica;fontSize=11;fontColor=default;startArrow=none;startFill=0;endArrow=classic;" edge="1" parent="1" source="EORFASU507ymha3DuIpC-32" target="EORFASU507ymha3DuIpC-44">
          <mxGeometry relative="1" as="geometry" />
        </mxCell>
        <mxCell id="EORFASU507ymha3DuIpC-32" value="productCategories.html" style="rounded=0;whiteSpace=wrap;html=1;fontFamily=Helvetica;fontSize=11;fontColor=default;" vertex="1" parent="1">
          <mxGeometry x="240" y="440" width="120" height="20" as="geometry" />
        </mxCell>
        <mxCell id="EORFASU507ymha3DuIpC-33" value="songs.html" style="rounded=0;whiteSpace=wrap;html=1;fontFamily=Helvetica;fontSize=11;fontColor=default;" vertex="1" parent="1">
          <mxGeometry x="240" y="480" width="80" height="20" as="geometry" />
        </mxCell>
        <mxCell id="EORFASU507ymha3DuIpC-48" style="edgeStyle=none;shape=connector;rounded=0;orthogonalLoop=1;jettySize=auto;html=1;exitX=0.5;exitY=0;exitDx=0;exitDy=0;labelBackgroundColor=default;strokeColor=default;align=center;verticalAlign=middle;fontFamily=Helvetica;fontSize=11;fontColor=default;startArrow=classic;startFill=1;endArrow=classic;" edge="1" parent="1" source="EORFASU507ymha3DuIpC-44" target="EORFASU507ymha3DuIpC-14">
          <mxGeometry relative="1" as="geometry" />
        </mxCell>
        <mxCell id="EORFASU507ymha3DuIpC-37" value="location.html" style="rounded=0;whiteSpace=wrap;html=1;fontFamily=Helvetica;fontSize=11;fontColor=default;" vertex="1" parent="1">
          <mxGeometry x="560" y="120" width="80" height="20" as="geometry" />
        </mxCell>
        <mxCell id="EORFASU507ymha3DuIpC-44" value="productCategory.html" style="rounded=0;whiteSpace=wrap;html=1;fontFamily=Helvetica;fontSize=11;fontColor=default;" vertex="1" parent="1">
          <mxGeometry x="400" y="440" width="120" height="20" as="geometry" />
        </mxCell>
      </root>
    </mxGraphModel>
  </diagram>
</mxfile>
